<svg width="200" height="50" viewBox="0 0 200 50" fill="none" xmlns="http://www.w3.org/2000/svg">
  <path d="M25 5C13.9543 5 5 13.9543 5 25C5 36.0457 13.9543 45 25 45C36.0457 45 45 36.0457 45 25C45 13.9543 36.0457 5 25 5Z" fill="#1E3A8A"/>
  <path d="M25 15L15 25L25 35L35 25L25 15Z" fill="#2DD4BF"/>
  <path d="M55 15H65V35H55V15Z" fill="#1E3A8A"/>
  <path d="M70 15H90V20H75V22.5H85V27.5H75V30H90V35H70V15Z" fill="#1E3A8A"/>
  <path d="M95 15H120V20H110V35H105V20H95V15Z" fill="#1E3A8A"/>
  <path d="M125 15H145V20H130V22.5H140V27.5H130V30H145V35H125V15Z" fill="#1E3A8A"/>
  <path d="M150 15H165C170 15 175 20 175 25C175 30 170 35 165 35H150V15ZM155 20V30H165C167.5 30 170 27.5 170 25C170 22.5 167.5 20 165 20H155Z" fill="#1E3A8A"/>
  <path d="M180 15H195V20H185V22.5H195V35H190V27.5H185V35H180V15Z" fill="#1E3A8A"/>
</svg> 